# xmcd CD database file
#
# Track frame offsets:
#	150
#	18456
#	39492
#	55493
#	89646
#	111108
#	139631
#	155628
#	173066
#	193237
#	212718
#	231045
#	248841
#	267728
#	290694
#
# Disc length: 4185 seconds
#
# Revision: 1
# Processed by: cddbd v1.5.2PL0 Copyright (c) Steve Scherf et al.
# Submitted via: CDex 1.50
#
DISCID=e410570f
DTITLE=Various Artist - Salsa Fever CD3
DYEAR=2003
DGENRE=Salsa
TTITLE0=Sonora Carruseles - Al son de los cueros
TTITLE1=Pedro Conga - Donde Estas
TTITLE2=Los Nemus - El mundo y el nino
TTITLE3=Cesta All Stars - El Qunito de Beethoven
TTITLE4=La Contrabanda - Mi Bomba
TTITLE5=Roberto Roena - Mi Mambo pide campana
TTITLE6=Los Titanes - No la dejes sola
TTITLE7=Fruko y Sus Tesos - Pachanga con la playa
TTITLE8=Luisito Carrion - Para ser real
TTITLE9=Maelo Ruiz - Te amo
TTITLE10=Cienfuegos All Stars - Yo tengo mi clave
TTITLE11=Aris Martinez - No tiguere Gallo ni Piraguayo
TTITLE12=Son de Oriente - La Rumba de las Calaveras
TTITLE13=NG La Banda - El Abuso
TTITLE14=Calle 23 feat. El Nino - La Manteca de Corojo
EXTD=YEAR: 2003
EXTT0=
EXTT1=
EXTT2=
EXTT3=
EXTT4=
EXTT5=
EXTT6=
EXTT7=
EXTT8=
EXTT9=
EXTT10=
EXTT11=
EXTT12=
EXTT13=
EXTT14=
PLAYORDER=
